<svg
    version="1.1"
    xmlns="http://www.w3.org/2000/svg"
    xmlns:xlink="http://www.w3.org/1999/xlink"
    class="cloud pt-3"
>
    <g>
        <path class="st0" d="M65.6,47.2c1.8-2.6,2.8-5.7,2.8-9.1c0-9-7.3-16.2-16.2-16.2s-11.7,6.9-9.4,9.2s8.4,1.7,8.4-12.8
                c0,0,1.4-16.8-15.8-16.8S18.7,18.3,18.7,18.3c0,14.5,6.1,15.1,8.4,12.8s-0.4-9.2-9.4-9.2S1.5,29.2,1.5,38.1s7.3,16.2,16.2,16.2H35"
        />
        <path class="st0" d="M35,54.4h17.2c2.1,0,4.1-0.4,6-1.1"/>
    </g>
</svg>
