<svg
    version="1.1"
    xmlns="http://www.w3.org/2000/svg"
    xmlns:xlink="http://www.w3.org/1999/xlink"
    class="day-cloud pt-2"
>
    <g>
        <path class="st0" d="M68,56.9c1.4-2.1,2.3-4.6,2.3-7.4c0-7.3-5.9-13.2-13.2-13.2s-9.5,5.6-7.6,7.4c1.9,1.9,6.8,1.4,6.8-10.3
              c0,0,1.1-13.6-12.8-13.6S29.9,33.5,29.9,33.5c0,11.7,4.9,12.2,6.8,10.3c1.9-1.9-0.3-7.4-7.6-7.4S16,42.3,16,49.6
              s5.9,13.2,13.2,13.2h14"/>
        <path class="st0" d="M43.1,62.8h14c1.7,0,3.3-0.3,4.8-0.9"/>
    </g>
    <g>
        <path class="st0" d="M17.5,33.1c-1.9-1.5-3.3-3.6-3.9-6.1c-1.3-5.2,1-10.5,5.4-13.1c0.9-0.5,1.9-1,3-1.2c4.5-1.2,9,0.4,11.8,3.7"/>
        <path class="st0" d="M8,29.1c0,0-3.6,1.8-6.5-1.6"/>
        <path class="st0" d="M13.9,38.2c0,0-1.8,3.5-6.2,2.6"/>
        <path class="st0" d="M36.1,11.2c0,0,1.8-3.5,6.2-2.6"/>
        <path class="st0" d="M26,7.2c0,0-0.6-3.9,3.5-5.7"/>
        <path class="st0" d="M15.6,10c0,0-2.8-2.8-0.5-6.7"/>
        <path class="st0" d="M8.7,18.3c0,0-3.9-0.7-4.4-5.1"/>
    </g>
</svg>
