<svg id="Layer_1" data-name="Layer 1" xmlns="http://www.w3.org/2000/svg" viewBox="0 0 615.63 189"><defs><style>.cls-1{fill:#8a735c;}</style></defs><path class="cls-1" d="M58.33,177.79c-5.53,0-10.89-2.68-13.32-7.26-2.61-4.91-4.71-17.65,24-37.59a228,228,0,0,0-7.39-29.31,86.65,86.65,0,0,1-2.21-8.39c-10.61,6.44-18.13,13.11-18.81,21.65a3.21,3.21,0,0,1-6.4-.51c.95-11.95,10.79-20.2,24.17-28-.8-8.53.53-15.7,4-21.43a24.64,24.64,0,0,1,15.5-11.29,12,12,0,0,1,13.33,8.06c2,6-.43,14.8-13.39,21.5-4.35,2.25-8.57,4.44-12.51,6.61a75.19,75.19,0,0,0,2.44,9.86,241.39,241.39,0,0,1,7.09,27.38c2.29-1.46,4.73-3,7.36-4.48a209.66,209.66,0,0,0,18.1-11.74c-.58-34.91,8.89-47.53,13.35-51.51,3.33-3,7.11-4.25,10.63-3.57,6.38,1.21,10.88,5.9,12,12.54.92,5.39.79,22.61-29.51,45.7.1,2.85.26,5.85.51,9,2.3,30.56,11.61,38.33,17,40.25,6,2.17,13.4-.65,20.18-7.73a3.21,3.21,0,0,1,4.64,4.44c-8.61,9-18.45,12.39-27,9.33-8.32-3-18.75-13.35-21.2-45.81-.12-1.7-.23-3.36-.32-5-4.48,3.11-9.51,6.31-15.14,9.6-3.44,2-6.58,3.95-9.45,5.83,3,21.64-.49,35.35-10.59,40.22A16.33,16.33,0,0,1,58.33,177.79Zm11.75-37.72c-17.82,13-22,22.59-19.41,27.45,1.89,3.54,7.7,4.95,12,2.9C69.5,167.1,72,156.49,70.08,140.07Zm52.36-76A7.15,7.15,0,0,0,118,66.14c-2.82,2.52-10.91,12.35-11.23,41.8C125.44,92.7,131.42,79.67,130,71.41a8.44,8.44,0,0,0-6.89-7.33A3.71,3.71,0,0,0,122.44,64Zm-42.53-2.1A5.3,5.3,0,0,0,79,62a18.12,18.12,0,0,0-11.19,8.4c-2.33,3.9-3.4,8.76-3.23,14.54,3.31-1.79,6.76-3.57,10.29-5.4,9.35-4.84,11.43-10.27,10.26-13.75A5.63,5.63,0,0,0,79.91,61.92Z" transform="translate(-34.23 -55.5)"/><path class="cls-1" d="M214.62,174a9.61,9.61,0,0,1-7.35-3.65c-2.47-2.8-3.21-9.62-3.13-17.33-5.8,10.89-15,20.57-29.27,20.6h0a10.57,10.57,0,0,1-8.92-4.4c-5.51-7.58-2.94-24-.33-34.92a43.69,43.69,0,0,1-9.06,5.24,3.21,3.21,0,0,1-2.32-6h0a47.54,47.54,0,0,0,15-11,3.21,3.21,0,0,1,5.38,3.2c-3.86,11.88-8.22,33.15-3.49,39.64a4.18,4.18,0,0,0,3.73,1.76h0c24.27,0,31.15-38,32-43.55,0-.09,0-.18,0-.27a3.21,3.21,0,0,1,6.35,1l-.06.35c-2.71,17.61-3.81,38.35-1.13,41.41,1.22,1.39,2.12,1.48,2.69,1.46,2.34-.16,5.23-3.44,6.26-5a3.21,3.21,0,0,1,5.37,3.52c-.5.77-5,7.44-11.17,7.88Z" transform="translate(-34.23 -55.5)"/><path class="cls-1" d="M516.87,173.59a3.05,3.05,0,0,1-.6-.06,3.2,3.2,0,0,1-2.58-3.63,77.35,77.35,0,0,1,1.6-7.7c3.25-16.88,4.3-31.68,2.21-34.06-1.22-1.39-2.13-1.5-2.69-1.46-2.34.16-5.23,3.43-6.27,5a3.21,3.21,0,0,1-5.36-3.52c.5-.76,5-7.44,11.17-7.88,2-.14,5.1.37,8,3.63,2.35,2.68,2.85,8.91,2.47,16.09,6.86-10.75,16.77-19.14,29.88-19.36,5-.06,8.91,1.77,11.58,5.35,6,8,4.12,23.42,1.89,33.8a43.88,43.88,0,0,1,9.28-5.4,3.21,3.21,0,1,1,2.32,6,47.41,47.41,0,0,0-15,11,3.21,3.21,0,0,1-5.39-3.18c2.52-7.94,7.74-30.31,1.76-38.33-1.44-1.93-3.36-2.83-6.32-2.76-17.8.3-28.95,20.45-33.25,36.73-.59,3-1.14,5.54-1.53,7.3A3.22,3.22,0,0,1,516.87,173.59Z" transform="translate(-34.23 -55.5)"/><path class="cls-1" d="M467.51,176.51a4.66,4.66,0,0,1-3.74-1.8c-3.23-4.09.56-18,6.13-33-5.21,5.22-9.57,8.9-9.9,9.17a3.2,3.2,0,1,1-4.12-4.91c.14-.12,14.1-11.91,21.67-23.06a3.21,3.21,0,0,1,5.61,3.07c-7.38,17.21-14.52,37.74-14.39,43.8,7.09-2.06,12.82-10.11,12.88-10.19a3.21,3.21,0,0,1,5.26,3.68c-.33.46-8.08,11.4-18.46,13.16A6,6,0,0,1,467.51,176.51Z" transform="translate(-34.23 -55.5)"/><path class="cls-1" d="M487.11,112.57a3.15,3.15,0,0,1-1.57-.41,3.19,3.19,0,0,1-1.63-3c.21-3.46,1.65-21,9.47-25.55a8.6,8.6,0,0,1,8.48-.09c3.75,1.82,4.72,4.56,4.87,6.53.65,8.47-13.45,18.94-17.79,21.94A3.22,3.22,0,0,1,487.11,112.57Zm10.44-23.68a1.65,1.65,0,0,0-.93.27c-2.49,1.45-4.34,7.18-5.39,13,5.15-4.42,9.28-9.19,9.1-11.57,0-.18-.05-.65-1.27-1.25A3.52,3.52,0,0,0,497.55,88.89Z" transform="translate(-34.23 -55.5)"/><path class="cls-1" d="M567,244.5a25.84,25.84,0,0,1-20-9c-7.63-8.92-8.77-22.28-2.72-31.76,3.16-5,13.09-15.78,37-9.13A63.19,63.19,0,0,0,596.92,197c.75-10.32.64-21.57.53-32.29-.18-18.78-.34-35,3.84-44.42,5.32-12,16.36-17.94,28.11-15.14,10.39,2.47,21.21,12.31,20.43,28.07-.77,15.3-8.85,30.95-22.81,31.25a18.12,18.12,0,0,1-18.16-12.7A3.21,3.21,0,0,1,615,150,11.67,11.67,0,0,0,626.87,158c10-.22,16-13.13,16.55-25.16s-7.62-19.63-15.5-21.51c-6.85-1.63-15.9.54-20.77,11.51-3.61,8.14-3.45,24.46-3.28,41.74.1,10.64.21,21.76-.52,32.17a73.22,73.22,0,0,0,38-14.88,3.21,3.21,0,0,1,4.18,4.88,77.83,77.83,0,0,1-42.8,16.55c-2,17.43-7,32-19.5,37.41A40.61,40.61,0,0,1,567,244.5Zm.31-45.51c-8,0-14.17,2.81-17.62,8.23-4.5,7-3.55,17.42,2.19,24.14,6.35,7.43,16.85,8.7,28.81,3.49,9.68-4.22,13.86-16.4,15.62-31.44a70.65,70.65,0,0,1-16.77-2.59A46.29,46.29,0,0,0,567.31,199Z" transform="translate(-34.23 -55.5)"/><path class="cls-1" d="M247.29,174a2.77,2.77,0,0,1-.49,0,3.21,3.21,0,0,1-2.69-3.65l.06-.35c2.71-17.62,3.81-38.36,1.13-41.41-1.22-1.39-2.12-1.49-2.69-1.46-2.34.16-5.23,3.43-6.26,5a3.21,3.21,0,0,1-5.37-3.52c.5-.76,5-7.44,11.17-7.87a9.51,9.51,0,0,1,8,3.62c2.47,2.81,3.21,9.63,3.13,17.34,5.8-10.9,15-20.58,29.27-20.61h0A17.91,17.91,0,0,1,294.1,125c7.92-4.43,16.64-4.89,24.29-1.18,11.79,5.7,10.14,18.46,8.81,28.72-.9,6.94-1.75,13.5,1.62,15.58a3.21,3.21,0,1,1-3.36,5.46c-6.91-4.25-5.75-13.2-4.62-21.87,1.44-11.13,1.85-18.69-5.24-22.12a19.07,19.07,0,0,0-17.21.41,23.39,23.39,0,0,1,1.14,2.17c4,8.56,3.4,20.82-1.21,26.24-2.77,3.27-8.5,5.85-13.64,4.18-2.53-.82-6.87-3.36-7.48-11.18-.56-7.28,4.06-16.25,11.3-22.47a12,12,0,0,0-5.94-1.42h0c-24.27,0-31.15,38-32,43.54,0,.1,0,.19,0,.28A3.21,3.21,0,0,1,247.29,174ZM293,133.48c-5.89,4.91-9.82,12-9.41,17.39.24,3.12,1.27,5,3.06,5.58,2.29.74,5.35-.56,6.77-2.23,2.42-2.84,3.6-12.24.28-19.39C293.49,134.36,293.26,133.91,293,133.48Z" transform="translate(-34.23 -55.5)"/><path class="cls-1" d="M358,174a2.77,2.77,0,0,1-.49,0,3.2,3.2,0,0,1-2.68-3.65c0-.11,0-.23.05-.35,2.71-17.62,3.81-38.36,1.13-41.41-1.22-1.39-2.12-1.49-2.69-1.46-2.33.16-5.23,3.43-6.26,5a3.21,3.21,0,0,1-5.36-3.52c.49-.76,5-7.44,11.17-7.87a9.49,9.49,0,0,1,8,3.62c2.47,2.81,3.21,9.63,3.14,17.34,5.8-10.9,15-20.58,29.26-20.61h.05A18,18,0,0,1,404.8,125c7.92-4.43,16.63-4.89,24.29-1.18,11.79,5.7,10.13,18.46,8.8,28.72-.9,6.94-1.74,13.5,1.62,15.58a3.21,3.21,0,1,1-3.36,5.46c-6.9-4.25-5.74-13.2-4.62-21.87,1.44-11.13,1.86-18.69-5.24-22.12a19.08,19.08,0,0,0-17.21.41c.41.69.79,1.41,1.15,2.17,4,8.56,3.4,20.82-1.21,26.24-2.78,3.27-8.51,5.85-13.64,4.18-2.54-.82-6.88-3.36-7.48-11.18-.57-7.28,4.06-16.25,11.3-22.47a12,12,0,0,0-5.94-1.42h0c-24.27,0-31.15,38-32,43.54a2.36,2.36,0,0,1,0,.28A3.2,3.2,0,0,1,358,174Zm45.73-40.54c-5.9,4.91-9.83,12-9.42,17.39.25,3.12,1.28,5,3.06,5.58,2.3.74,5.35-.56,6.78-2.23,2.41-2.84,3.59-12.24.27-19.39Q404.07,134.13,403.71,133.48Z" transform="translate(-34.23 -55.5)"/></svg>