<svg id="Layer_1" data-name="Layer 1" xmlns="http://www.w3.org/2000/svg" viewBox="0 0 163.32 172.53"><defs><style>.cls-1{fill:#8a735c;}</style></defs><path class="cls-1" d="M201.73,236.58c-7.79,0-15.36-3.77-18.79-10.23-3.69-6.94-6.64-24.91,33.91-53A320.07,320.07,0,0,0,206.43,132a121.24,121.24,0,0,1-3.11-11.84c-15,9.08-25.59,18.5-26.54,30.54a4.53,4.53,0,0,1-9-.71c1.34-16.87,15.22-28.5,34.1-39.49-1.14-12,.74-22.15,5.64-30.24A34.72,34.72,0,0,1,229.36,64.3a17,17,0,0,1,18.8,11.37c2.86,8.46-.6,20.87-18.88,30.33-6.15,3.18-12.1,6.26-17.66,9.33a106.93,106.93,0,0,0,3.45,13.9,340.2,340.2,0,0,1,10,38.63q4.84-3.08,10.38-6.31A294.46,294.46,0,0,0,261,145c-.81-49.25,12.55-67,18.84-72.67,4.69-4.2,10-6,15-5,9,1.71,15.36,8.32,17,17.69,1.3,7.6,1.12,31.91-41.63,64.49q.21,6,.71,12.71c3.25,43.11,16.39,54.09,23.93,56.79,8.53,3.06,18.91-.91,28.48-10.9a4.53,4.53,0,1,1,6.53,6.27c-12.14,12.68-26,17.48-38.06,13.16-11.74-4.21-26.46-18.84-29.92-64.64q-.27-3.6-.45-7c-6.32,4.39-13.41,8.91-21.37,13.54q-7.26,4.24-13.32,8.23c4.3,30.53-.7,49.87-15,56.74A23.08,23.08,0,0,1,201.73,236.58Zm16.58-53.21c-25.14,18.27-31,31.88-27.38,38.73,2.66,5,10.86,7,16.87,4.08C217.49,221.51,221,206.54,218.31,183.37ZM292.18,76.08c-1.94,0-4.15,1-6.33,3-4,3.57-15.4,17.42-15.84,59,26.41-21.51,34.84-39.89,32.84-51.54-1-5.58-4.5-9.35-9.72-10.34A6,6,0,0,0,292.18,76.08Zm-60-3a7.41,7.41,0,0,0-1.24.1,25.55,25.55,0,0,0-15.79,11.85c-3.29,5.5-4.81,12.36-4.56,20.51,4.67-2.51,9.54-5,14.53-7.61,13.19-6.83,16.12-14.5,14.46-19.4A7.92,7.92,0,0,0,232.18,73.11Z" transform="translate(-167.74 -64.05)"/></svg>