<svg xmlns="http://www.w3.org/2000/svg" width="16.872" height="16.834" viewBox="0 0 16.872 16.834">
    <defs>
        <style>
            .cls-1{fill:#fff}
        </style>
    </defs>
    <g id="그룹_90" data-name="그룹 90" transform="translate(-404.648 -173.393)">
        <path id="패스_47" d="M206.927 528.3a1.055 1.055 0 0 1-1.054-1.054v-14.725a1.053 1.053 0 0 1 1.726-.811l8.879 7.364a1.053 1.053 0 0 1 0 1.621l-8.879 7.364a1.058 1.058 0 0 1-.672.241zm1.054-13.539v10.243l6.175-5.122z" class="cls-1" data-name="패스 47" transform="translate(198.775 -338.074)"/>
        <path id="패스_48" d="M214.046 528.3a1.054 1.054 0 0 1-1.054-1.053v-14.725a1.053 1.053 0 0 1 1.688-.841l9.764 7.363a1.053 1.053 0 0 1 0 1.681l-9.764 7.364a1.055 1.055 0 0 1-.634.211zm1.054-13.666v10.5l6.961-5.25z" class="cls-1" data-name="패스 48" transform="translate(196.657 -338.074)"/>
    </g>
</svg>
