<svg
    version="1.1"
    xmlns="http://www.w3.org/2000/svg"
    xmlns:xlink="http://www.w3.org/1999/xlink"
>
    <defs>
    </defs>
    <g class="night">
        <path class="st0" d="M19.9,30.3c4.5,6.5,13.8,6.2,21,0.6c6.3-4.9,8.8-9.9,8.8-9.9c0.7,3.3,0.6,6.8-0.2,10.3
                c-3.1,13.1-16.2,21.2-29.2,18.1S-0.9,33.4,2.1,20.3S18.3-0.9,31.4,2.1c4.8,1.1,8.9,3.6,12.1,6.9c0,0-7.9-1.3-15.7,2
                C18.9,14.6,15.4,23.8,19.9,30.3z"/>
        <line class="st0" x1="59.1" y1="38.2" x2="59.1" y2="43"/>
        <line class="st0" x1="53.2" y1="42.7" x2="57.7" y2="44.1"/>
        <line class="st0" x1="55.6" y1="49.7" x2="58.4" y2="45.8"/>
        <line class="st0" x1="63" y1="49.5" x2="60.2" y2="45.7"/>
        <line class="st0" x1="65.2" y1="42.5" x2="60.7" y2="43.9"/>
        <line class="st0" x1="46.7" y1="54.9" x2="45.8" y2="57.5"/>
        <line class="st0" x1="42.7" y1="56.2" x2="44.9" y2="57.9"/>
        <line class="st0" x1="42.6" y1="60.5" x2="44.9" y2="58.9"/>
        <line class="st0" x1="46.7" y1="61.8" x2="45.9" y2="59.2"/>
        <line class="st0" x1="49.3" y1="58.4" x2="46.5" y2="58.3"/>
        <line class="st0" x1="63.6" y1="60.4" x2="62" y2="62"/>
        <line class="st0" x1="60.1" y1="59.8" x2="61.1" y2="61.9"/>
        <line class="st0" x1="58.5" y1="62.9" x2="60.7" y2="62.6"/>
        <line class="st0" x1="61" y1="65.4" x2="61.4" y2="63.2"/>
        <line class="st0" x1="64.1" y1="63.9" x2="62.1" y2="62.8"/>
    </g>
</svg>
