<svg
    version="1.1"
    xmlns="http://www.w3.org/2000/svg"
    xmlns:xlink="http://www.w3.org/1999/xlink"
    class="night-cloud pt-2"
>
    <path class="st0" d="M38.4,15.6c0.5-0.9,1.1-1.7,1.7-2.6c6.1-7.7,17.3-9,25-2.9c2.8,2.2,4.8,5.2,5.8,8.3c0,0-4.8-3.3-11-3.6
            c-7-0.4-12.2,4.6-11.3,10.3s7.2,8.4,13.7,7c5.7-1.3,8.9-3.8,8.9-3.8c-0.6,2.4-1.7,4.7-3.3,6.8c-2.3,2.9-5.3,4.9-8.6,5.9"/>
    <g>
        <path class="st0" d="M53.5,56.2c1.4-2.1,2.3-4.6,2.3-7.4c0-7.3-5.9-13.2-13.2-13.2s-9.5,5.6-7.6,7.4c1.9,1.9,6.8,1.4,6.8-10.3
              c0,0,1.1-13.6-12.8-13.6S15.5,32.7,15.5,32.7c0,11.7,4.9,12.2,6.8,10.3c1.9-1.9-0.3-7.4-7.6-7.4S1.5,41.5,1.5,48.8S7.4,62,14.7,62
              h14"/>
        <path class="st0" d="M28.6,62h14c1.7,0,3.3-0.3,4.8-0.9"/>
    </g>
    <line class="st0" x1="11.7" y1="4.8" x2="10.5" y2="9.4"/>
    <line class="st0" x1="4.9" y1="7.7" x2="8.9" y2="10.2"/>
    <line class="st0" x1="5.5" y1="15" x2="9.1" y2="12"/>
    <line class="st0" x1="12.7" y1="16.7" x2="10.9" y2="12.3"/>
    <line class="st0" x1="16.5" y1="10.4" x2="11.8" y2="10.7"/>
    <line class="st0" x1="27.5" y1="2.1" x2="25.9" y2="3.6"/>
    <line class="st0" x1="24.1" y1="1.5" x2="25" y2="3.5"/>
    <line class="st0" x1="22.4" y1="4.6" x2="24.7" y2="4.3"/>
    <line class="st0" x1="24.9" y1="7.1" x2="25.3" y2="4.9"/>
    <line class="st0" x1="28" y1="5.5" x2="26" y2="4.5"/>
</svg>
