<svg xmlns="http://www.w3.org/2000/svg" id="pause-primary" width="16.886" height="16.876" viewBox="0 0 16.886 16.876">
    <defs>
        <style>
            .cls-1{fill:#89725b}
        </style>
    </defs>
    <path id="패스_45" d="M181.72 528.344h-4.849a1.024 1.024 0 0 1-1.092-.938v-15a1.024 1.024 0 0 1 1.092-.938h4.849a1.025 1.025 0 0 1 1.093.938v15a1.025 1.025 0 0 1-1.093.938zm-3.756-1.876h2.664v-13.12h-2.664z" class="cls-1" data-name="패스 45" transform="translate(-175.779 -511.469)"/>
    <path id="패스_46" d="M195.715 528.34h-4.849a1.024 1.024 0 0 1-1.093-.936l-.021-15a1.024 1.024 0 0 1 1.091-.939h4.849a1.024 1.024 0 0 1 1.093.936l.021 15a1.024 1.024 0 0 1-1.091.939zm-3.759-1.872h2.664l-.018-13.119h-2.664z" class="cls-1" data-name="패스 46" transform="translate(-179.921 -511.469)"/>
</svg>
