<svg xmlns="http://www.w3.org/2000/svg" width="16.871" height="16.834" viewBox="0 0 16.871 16.834">
    <defs>
        <style>
            .cls-1{fill:#89725b}
        </style>
    </defs>
    <g id="그룹_88" data-name="그룹 88" transform="translate(-358.724 -173.394)">
        <path id="패스_47" d="M1.054 16.834A1.055 1.055 0 0 1 0 15.781V1.054A1.054 1.054 0 0 1 1.726.242L10.6 7.606a1.053 1.053 0 0 1 0 1.621l-8.874 7.364a1.058 1.058 0 0 1-.672.243zM2.107 3.3v10.238l6.175-5.121z" class="cls-1" data-name="패스 47" transform="rotate(180 187.798 95.114)"/>
        <path id="패스_48" d="M1.054 16.834A1.054 1.054 0 0 1 0 15.781V1.054A1.053 1.053 0 0 1 1.688.213l9.764 7.363a1.053 1.053 0 0 1 0 1.681l-9.764 7.365a1.055 1.055 0 0 1-.634.212zM2.107 3.168v10.5l6.961-5.25z" class="cls-1" data-name="패스 48" transform="rotate(180 185.298 95.114)"/>
    </g>
</svg>
