<svg
    version="1.1"
    xmlns="http://www.w3.org/2000/svg"
    xmlns:xlink="http://www.w3.org/1999/xlink"
    class="rain"
>
    <path class="st0" d="M37.6,10.1c34.1,0.7,35.3,37.9,35.3,37.9"/>
    <path class="st0" d="M1.5,47.9c0,0,0-34.1,30-37.6"/>
    <path class="st0" d="M49.4,47.9c0-2.8,5.3-5,11.7-5s11.7,2.3,11.7,5"/>
    <path class="st0" d="M25.5,47.9c0-2.8,5.3-5,11.7-5s11.7,2.3,11.7,5c0,0,3.1-9.7-1.3-20.2"/>
    <path class="st0" d="M1.5,47.9c0-2.8,5.3-5,11.7-5s11.7,2.3,11.7,5"/>
    <path class="st0" d="M37.2,50c0,0,0,8.8,0,14c0,5.2-0.2,9.1-6.6,9.1S25,65.4,25,65.4"/>
    <line class="st0" x1="37.2" y1="1.5" x2="37.2" y2="17.1"/>
</svg>
