<svg
    version="1.1"
    xmlns="http://www.w3.org/2000/svg"
    xmlns:xlink="http://www.w3.org/1999/xlink"
    class="snow"
>
    <g>
        <g>
            <line class="st0" x1="35.8" y1="33.2" x2="35.8" y2="31.2"/>
            <line class="st0" x1="35.8" y1="37.6" x2="35.8" y2="36.7"/>
            <polyline class="st0" points="31.4,25.8 36,27.3 40.1,25.9 		"/>
            <line class="st0" x1="35.8" y1="22.2" x2="35.8" y2="18.5"/>
            <polyline class="st0" points="29.3,12 35.7,14.2 42.3,12 		"/>
            <line class="st0" x1="35.8" y1="8.3" x2="35.8" y2="3.2"/>
        </g>
        <g>
            <line class="st0" x1="30" y1="37.4" x2="28.2" y2="36.7"/>
            <line class="st0" x1="34.2" y1="38.7" x2="33.4" y2="38.5"/>
            <polyline class="st0" points="21.7,39.2 24.5,35.4 24.5,31 		"/>
            <line class="st0" x1="19.6" y1="34" x2="16" y2="32.8"/>
            <polyline class="st0" points="7.9,37 12,31.6 11.9,24.6 		"/>
            <line class="st0" x1="6.4" y1="29.7" x2="1.5" y2="28.1"/>
        </g>
        <g>
            <line class="st0" x1="32.2" y1="44.1" x2="31.1" y2="45.7"/>
            <line class="st0" x1="34.8" y1="40.5" x2="34.3" y2="41.2"/>
            <polyline class="st0" points="31.4,52.6 28.7,48.7 24.4,47.4 		"/>
            <line class="st0" x1="25.8" y1="53" x2="23.6" y2="56"/>
            <polyline class="st0" points="25.1,65 21.1,59.5 14.5,57.4 		"/>
            <line class="st0" x1="17.6" y1="64.2" x2="14.6" y2="68.4"/>
        </g>
        <g>
            <line class="st0" x1="39.4" y1="44.1" x2="40.5" y2="45.7"/>
            <line class="st0" x1="36.7" y1="40.5" x2="37.2" y2="41.2"/>
            <polyline class="st0" points="47.2,47.5 42.6,48.9 40.1,52.5 		"/>
            <line class="st0" x1="45.8" y1="53" x2="48" y2="56"/>
            <polyline class="st0" points="57,57.4 50.5,59.4 46.5,65 		"/>
            <line class="st0" x1="53.9" y1="64.2" x2="57" y2="68.4"/>
        </g>
        <g>
            <line class="st0" x1="41.5" y1="37.3" x2="43.4" y2="36.8"/>
            <line class="st0" x1="37.3" y1="38.7" x2="38.1" y2="38.5"/>
            <polyline class="st0" points="47.2,30.9 47.1,35.7 49.8,39.3 		"/>
            <line class="st0" x1="52" y1="34" x2="55.5" y2="32.8"/>
            <polyline class="st0" points="59.6,24.6 59.5,31.5 63.6,37 		"/>
            <line class="st0" x1="65.2" y1="29.7" x2="70.1" y2="28.1"/>
        </g>
    </g>
    <g>
        <line class="st0" x1="53.8" y1="8.4" x2="53.8" y2="20.2"/>
        <line class="st0" x1="48.6" y1="17.4" x2="58.9" y2="11.5"/>
        <line class="st0" x1="59.1" y1="17.4" x2="48.8" y2="11.5"/>
    </g>
    <g>
        <line class="st0" x1="65.8" y1="1.5" x2="65.8" y2="8.2"/>
        <line class="st0" x1="62.9" y1="6.6" x2="68.7" y2="3.2"/>
        <line class="st0" x1="68.8" y1="6.6" x2="63" y2="3.2"/>
    </g>
</svg>
