<svg
    version="1.1"
    xmlns="http://www.w3.org/2000/svg"
    xmlns:xlink="http://www.w3.org/1999/xlink"
>
    <path class="st0" d="M38,65.6c0,0,1.3,6.1-5,9.3" />
    <path class="st0" d="M54.1,60.4c0,0,4.6,4.2,1.5,10.5" />
    <path class="st0" d="M64,46.7c0,0,6.2,0.7,7.3,7.6" />
    <path class="st0" d="M64,29.7c0,0,5.4-3.1,10.4,1.8" />
    <path class="st0" d="M54,16c0,0,2.5-5.7,9.5-4.6" />
    <path
            class="st0"
            d="M53.7,30.3c1.1,2.3,1.7,4.9,1.7,7.6c0,10.2-8.2,18.4-18.4,18.4S18.5,48.1,18.5,38S26.8,19.5,37,19.5
		          c3.7,0,7.2,1.1,10.1,3"
    />
    <path class="st0" d="M37.9,10.8c0,0-1.3-6.1,5-9.3" />
    <path class="st0" d="M21.8,16.1c0,0-4.6-4.2-1.5-10.5" />
    <path class="st0" d="M11.9,29.8c0,0-6.2-0.7-7.3-7.6" />
    <path class="st0" d="M11.9,46.7c0,0-5.4,3.1-10.4-1.8" />
    <path class="st0" d="M21.9,60.4c0,0-2.5,5.7-9.5,4.6" />
</svg>
