<svg id="Layer_1" data-name="Layer 1" xmlns="http://www.w3.org/2000/svg" viewBox="0 0 247.77 247.77"><defs><style>.cls-1{fill:#8a735c;}.cls-2{fill:#fff;}</style></defs><circle class="cls-1" cx="123.88" cy="123.88" r="123.88"/><path class="cls-2" d="M202.33,236.26c-7.79,0-15.36-3.77-18.8-10.23-3.68-6.93-6.63-24.91,33.92-53A320.07,320.07,0,0,0,207,131.64a120.5,120.5,0,0,1-3.11-11.84c-15,9.08-25.59,18.51-26.54,30.55a4.53,4.53,0,0,1-9-.72c1.34-16.86,15.22-28.5,34.1-39.49-1.14-12,.74-22.15,5.64-30.24A34.72,34.72,0,0,1,230,64a17,17,0,0,1,18.8,11.37c2.86,8.46-.61,20.88-18.88,30.33-6.15,3.18-12.1,6.26-17.66,9.33a107.06,107.06,0,0,0,3.45,13.91,339.66,339.66,0,0,1,10,38.63c3.23-2.06,6.68-4.16,10.38-6.32a298.46,298.46,0,0,0,25.54-16.56c-.81-49.26,12.55-67.06,18.83-72.67,4.7-4.2,10-6,15-5,9,1.71,15.35,8.32,17,17.7,1.31,7.6,1.13,31.9-41.62,64.48q.21,6,.7,12.71c3.26,43.12,16.4,54.09,23.94,56.8,8.53,3.05,18.91-.92,28.48-10.9A4.52,4.52,0,1,1,330.4,214c-12.14,12.68-26,17.48-38.07,13.16-11.73-4.21-26.45-18.84-29.91-64.63q-.27-3.6-.45-7c-6.32,4.39-13.41,8.91-21.37,13.55q-7.28,4.23-13.32,8.23c4.3,30.52-.7,49.86-14.95,56.73A22.94,22.94,0,0,1,202.33,236.26Zm16.58-53.2c-25.14,18.27-31,31.87-27.38,38.72,2.66,5,10.86,7,16.87,4.09C218.09,221.19,221.59,206.22,218.91,183.06Zm73.87-107.3c-1.94,0-4.15,1-6.33,3-4,3.56-15.4,17.42-15.84,59,26.41-21.5,34.84-39.89,32.84-51.54-1-5.58-4.5-9.34-9.72-10.33A5,5,0,0,0,292.78,75.76Zm-60-3a7.42,7.42,0,0,0-1.24.11,25.52,25.52,0,0,0-15.8,11.84c-3.28,5.5-4.8,12.36-4.55,20.52,4.67-2.52,9.54-5,14.53-7.62,13.19-6.82,16.12-14.49,14.46-19.4A7.94,7.94,0,0,0,232.78,72.79Z" transform="translate(-126.12 -26.12)"/></svg>