<svg
    version="1.1"
    xmlns="http://www.w3.org/2000/svg"
    xmlns:xlink="http://www.w3.org/1999/xlink"
    class="thunder"
>
    <g>
        <path class="st0" d="M68.4,49.2c1.8-2.7,2.9-6,2.9-9.5c0-9.4-7.6-16.9-16.9-16.9s-12.2,7.1-9.8,9.6s8.8,1.8,8.8-13.3
                c0,0,1.5-17.5-16.5-17.5S19.5,19,19.5,19c0,15.1,6.3,15.7,8.8,13.3s-0.4-9.6-9.8-9.6S1.5,30.4,1.5,39.7s7.6,16.9,16.9,16.9h6"/>
    </g>
    <polygon class="st0" points="39.6,68.4 42.6,57.1 32.1,57.1 41.1,40.6 54.3,40.6 47.5,51 59.4,51 "/>
</svg>
