<svg
    version="1.1"
    xmlns="http://www.w3.org/2000/svg"
    xmlns:xlink="http://www.w3.org/1999/xlink"
    class="wind"
>
    <path class="st0" d="M62.4,18.2c0,0-9.9,47.6-54.1,51.2"/>
    <path class="st0" d="M59,2.4c0,0-9.3,22.5-26.9,19.1C17.7,18.6,26.8,1,39.4,10.2c14.3,10.3,10.4,32.2-8.9,33.6"/>
    <path class="st0" d="M54.8,63.9c-2.3,2.2-5,4.1-8,5.5"/>
    <path class="st0" d="M70.9,1.5c0,0,2.8,33.9-10,54.8"/>
    <g>
        <path class="st0" d="M20.6,41.6c0,0,1.5-6.4-3.2-8.7s-16-1.7-16-1.7S13.3,51.1,20.6,41.6z"/>
        <line class="st0" x1="20.6" y1="41.6" x2="23.8" y2="43.1"/>
    </g>
</svg>
